<svg width="20" height="18" viewBox="0 0 20 18" fill="none" xmlns="http://www.w3.org/2000/svg">
<path fill-rule="evenodd" clip-rule="evenodd" d="M9.72386 0.376577C10.2446 -0.125526 11.0888 -0.125526 11.6095 0.376577L19.6095 8.09086C20.1302 8.59297 20.1302 9.40703 19.6095 9.90914L11.6095 17.6234C11.0888 18.1255 10.2446 18.1255 9.72386 17.6234C9.20316 17.1213 9.20316 16.3073 9.72386 15.8051L16.781 9L9.72386 2.19485C9.20316 1.69275 9.20316 0.87868 9.72386 0.376577Z" fill="#E6E6E6"/>
<path fill-rule="evenodd" clip-rule="evenodd" d="M0 9C0 8.28992 0.596954 7.71429 1.33333 7.71429H17.5556C18.2919 7.71429 18.8889 8.28992 18.8889 9C18.8889 9.71008 18.2919 10.2857 17.5556 10.2857H1.33333C0.596954 10.2857 0 9.71008 0 9Z" fill="#E6E6E6"/>
</svg>
