<svg width="8" height="15" viewBox="0 0 8 15" fill="none" xmlns="http://www.w3.org/2000/svg">
<path fill-rule="evenodd" clip-rule="evenodd" d="M0.404494 5.8125C0.404494 5.29473 0.806935 4.875 1.30337 4.875H4.17978C4.67621 4.875 5.07865 5.29473 5.07865 5.8125V13.875C5.07865 14.3928 4.67621 14.8125 4.17978 14.8125C3.68334 14.8125 3.2809 14.3928 3.2809 13.875V6.75H1.30337C0.806935 6.75 0.404494 6.33027 0.404494 5.8125Z" fill="white"/>
<path fill-rule="evenodd" clip-rule="evenodd" d="M0 14.0625C0 13.5447 0.402441 13.125 0.898876 13.125H7.10112C7.59756 13.125 8 13.5447 8 14.0625C8 14.5803 7.59756 15 7.10112 15H0.898876C0.402441 15 0 14.5803 0 14.0625Z" fill="white"/>
<path d="M4 3C3.71555 3 3.43749 2.91203 3.20098 2.74721C2.96447 2.58238 2.78013 2.34811 2.67127 2.07403C2.56242 1.79994 2.53394 1.49834 2.58943 1.20737C2.64493 0.916394 2.7819 0.649119 2.98304 0.439341C3.18417 0.229562 3.44044 0.0867006 3.71942 0.0288228C3.9984 -0.0290551 4.28758 0.000649922 4.55038 0.114181C4.81317 0.227713 5.03779 0.419972 5.19582 0.666646C5.35385 0.913319 5.4382 1.20333 5.4382 1.5C5.4382 1.89783 5.28668 2.27936 5.01696 2.56066C4.74725 2.84197 4.38144 3 4 3Z" fill="white"/>
</svg>
